<?xml version="1.0" encoding="UTF-8" standalone="no"?>
<svg
   viewBox="0 0 562.66669 469.33334"
   height="469.33334"
   width="562.66669"
   xml:space="preserve"
   id="svg2"
   version="1.1"
   sodipodi:docname="Copy-of-Marvel02a-_1_.svg"
   inkscape:version="1.3.1 (9b9bdc1480, 2023-11-25, custom)"
   xmlns:inkscape="http://www.inkscape.org/namespaces/inkscape"
   xmlns:sodipodi="http://sodipodi.sourceforge.net/DTD/sodipodi-0.dtd"
   xmlns="http://www.w3.org/2000/svg"
   xmlns:svg="http://www.w3.org/2000/svg"
   xmlns:rdf="http://www.w3.org/1999/02/22-rdf-syntax-ns#"
   xmlns:cc="http://creativecommons.org/ns#"
   xmlns:dc="http://purl.org/dc/elements/1.1/"><sodipodi:namedview
     id="namedview1"
     pagecolor="#ffffff"
     bordercolor="#000000"
     borderopacity="0.25"
     inkscape:showpageshadow="2"
     inkscape:pageopacity="0.0"
     inkscape:pagecheckerboard="0"
     inkscape:deskcolor="#d1d1d1"
     showgrid="false"
     inkscape:zoom="0.86931816"
     inkscape:cx="261.12419"
     inkscape:cy="308.28759"
     inkscape:window-width="2560"
     inkscape:window-height="1016"
     inkscape:window-x="0"
     inkscape:window-y="254"
     inkscape:window-maximized="1"
     inkscape:current-layer="svg2" /><metadata
     id="metadata8"><rdf:RDF><cc:Work
         rdf:about=""><dc:format>image/svg+xml</dc:format><dc:type
           rdf:resource="http://purl.org/dc/dcmitype/StillImage" /></cc:Work></rdf:RDF></metadata><defs
     id="defs6" /><g
     transform="matrix(2.2538571,0,0,-2.2538571,-183.53418,647.75528)"
     id="g10"><g
       transform="scale(0.1)"
       id="g12"><path
         id="path14"
         style="fill:#ed1c24;fill-opacity:1;fill-rule:nonzero;stroke:none"
         d="m 2653.24,2051.79 c -27.2,113.15 -178.55,180.39 -376.27,183.27 l 30.26,-52.36 c 133.2,-13.31 228.22,-60.95 246.19,-135.77 25.88,-107.64 -115.78,-237.59 -331.78,-318.42 l 37.07,-72.48 c 257.5,88.87 428.5,254.44 394.53,395.76 z M 1555.82,1943 c 78.85,86.23 230.72,167.16 414.78,211.4 71.59,17.22 141.4,27.27 206.39,30.73 l 27.85,48.21 c -61.27,-3.74 -125.77,-13.25 -191.51,-29.06 C 1803.71,2153.9 1634.35,2052.4 1555.82,1943" /><path
         id="path16"
         style="fill:#2e2c2c;fill-opacity:1;fill-rule:nonzero;stroke:none"
         d="m 1951.34,2240.9 -362.43,-627.73 h 144.93 l 217.5,376.7 217.47,-376.7 h 144.94 l -362.41,627.73" /><path
         id="path18"
         style="fill:#ed1c24;fill-opacity:1;fill-rule:nonzero;stroke:none"
         d="m 2241.41,2240.9 -362.42,-627.73 h 144.93 l 217.49,376.7 217.48,-376.7 h 144.94 l -362.42,627.73" /><path
         id="path20"
         style="fill:#2e2c2c;fill-opacity:1;fill-rule:nonzero;stroke:none"
         d="m 1448.55,1582.82 c 38.45,-159.95 324.96,-228.24 639.89,-152.52 209.65,50.4 378.98,151.89 457.52,261.28 -78.85,-86.22 -230.71,-167.15 -414.77,-211.38 -290.81,-69.93 -551.75,-21.8 -582.83,107.46 -25.87,107.64 115.78,237.59 331.79,318.43 l -37.08,72.49 c -257.5,-88.9 -428.49,-254.45 -394.52,-395.76" /><path
         id="path22"
         style="fill:#231f20;fill-opacity:1;fill-rule:nonzero;stroke:none"
         d="m 3232.62,1237.81 c 3.24,0 4.84,1.61 4.84,4.85 v 24.23 h 7.29 v -24.23 c 0,-9.7 -4.05,-14.54 -12.13,-14.54 h -21.82 v 9.69 h 21.82" /><path
         id="path24"
         style="fill:#231f20;fill-opacity:1;fill-rule:nonzero;stroke:none"
         d="m 3232.62,1281.65 c 3.24,0 4.84,1.61 4.84,4.84 v 24.24 h 7.29 v -24.24 c 0,-9.69 -4.05,-14.54 -12.13,-14.54 h -21.82 v 9.7 h 21.82" /><path
         id="path26"
         style="fill:#231f20;fill-opacity:1;fill-rule:nonzero;stroke:none"
         d="m 3237.46,1354.58 h 7.29 v -24.24 c 0,-9.7 -4.05,-14.54 -12.13,-14.54 h -9.69 c -8.09,0 -12.13,4.84 -12.13,14.54 v 24.24 l 7.29,0.03 v -24.27 c 0,-3.23 1.6,-4.84 4.84,-4.84 h 9.69 c 3.24,0 4.84,1.61 4.84,4.84 v 24.24" /><path
         id="path28"
         style="fill:#2e2c2c;fill-opacity:1;fill-rule:nonzero;stroke:none"
         d="m 953.555,1354.03 c 17.523,0 29.211,-11.68 35.054,-35.05 l 13.141,-42.58 13.15,42.58 c 5.84,23.37 17.52,35.05 35.05,35.05 29.21,0 43.81,-14.6 43.81,-43.81 v -78.86 h -35.05 v 83.25 c 0,2.92 -1.46,4.37 -4.38,4.37 -2.92,0 -5.84,-5.84 -8.76,-17.52 l -17.53,-52.57 c -2.92,-11.69 -10.22,-17.53 -21.91,-17.53 h -8.763 c -11.683,0 -18.984,5.84 -21.902,17.53 l -17.531,52.57 c -2.918,11.68 -5.84,17.52 -8.758,17.52 -2.926,0 -4.379,-1.45 -4.379,-4.37 v -83.25 h -35.055 v 78.86 c 0,29.21 14.606,43.81 43.813,43.81" /><path
         id="path30"
         style="fill:#2e2c2c;fill-opacity:1;fill-rule:nonzero;stroke:none"
         d="m 1382.89,1279.55 h -74.49 v -48.19 h -35.05 v 74.48 h 109.54 c 8.76,0 13.14,2.92 13.14,8.77 v 4.37 c 0,5.84 -4.38,8.76 -13.14,8.76 h -109.54 l 0.09,26.29 h 109.45 c 32.12,0 48.19,-11.68 48.19,-35.05 v -4.37 c 0,-11.28 -3.74,-19.84 -11.22,-25.68 10.29,-12.39 16.95,-31.58 19.98,-57.57 h -35.05 c -5.84,32.13 -13.14,48.19 -21.9,48.19" /><path
         id="path32"
         style="fill:#2e2c2c;fill-opacity:1;fill-rule:nonzero;stroke:none"
         d="m 1516.43,1231.36 h -8.76 c -11.69,0 -20.45,5.84 -26.29,17.53 l -52.58,105.14 h 39.44 l 43.81,-87.62 43.81,87.62 h 39.44 l -52.58,-105.14 c -5.84,-11.69 -14.6,-17.53 -26.29,-17.53" /><path
         id="path34"
         style="fill:#2e2c2c;fill-opacity:1;fill-rule:nonzero;stroke:none"
         d="m 1622.91,1279.55 v -4.37 c 0,-11.69 5.84,-17.53 17.52,-17.53 h 87.63 v -26.29 h -87.63 c -35.05,0 -52.58,14.6 -52.58,43.82 v 35.04 c 0,29.21 17.53,43.81 52.58,43.81 h 87.63 l 0.08,-26.29 h -87.71 c -11.68,0 -17.52,-5.84 -17.52,-17.52 v -4.38 h 105.15 v -26.29 h -105.15" /><path
         id="path36"
         style="fill:#2e2c2c;fill-opacity:1;fill-rule:nonzero;stroke:none"
         d="m 1771.87,1275.18 c 0,-11.69 5.84,-17.53 17.52,-17.53 h 87.63 v -26.29 h -87.63 c -35.05,0 -52.57,14.6 -52.57,43.82 v 78.85 h 35.05 v -78.85" /><path
         id="path38"
         style="fill:#2e2c2c;fill-opacity:1;fill-rule:nonzero;stroke:none"
         d="m 1109.05,1316.48 c 0,10.35 3.22,19.23 9.67,26.69 6.45,7.47 14.85,11.22 25.2,11.22 h 81.21 c 10.2,0 18.51,-3.75 24.97,-11.22 6.44,-7.46 9.67,-16.34 9.67,-26.69 v -84.88 h -28.66 v 84.84 c 0,6.19 -1.99,9.28 -5.98,9.28 h -81.21 c -4.14,0 -6.21,-3.09 -6.21,-9.31 v -17.2 h 75.48 v -28.66 h -75.48 v -38.95 h -28.66 v 84.88" /><path
         id="path40"
         style="fill:#ed1c24;fill-opacity:1;fill-rule:nonzero;stroke:none"
         d="m 2123.09,1325.71 v 25.34 h 101.36 c 33.79,0 50.69,-14.08 50.69,-42.23 v -42.23 c 0,-22.53 -16.9,-33.79 -50.69,-33.79 h -101.36 v 67.57 h 33.79 v -42.23 h 67.57 c 11.25,0 16.9,5.63 16.9,16.9 v 33.78 c 0,11.26 -5.65,16.89 -16.9,16.89 h -101.36" /><path
         id="path42"
         style="fill:#ed1c24;fill-opacity:1;fill-rule:nonzero;stroke:none"
         d="m 2366.25,1232.8 h -8.44 c -11.27,0 -19.7,5.64 -25.35,16.9 l -50.66,101.35 h 38 l 42.23,-84.46 42.23,84.46 h 38.01 L 2391.6,1249.7 c -5.64,-11.26 -14.08,-16.9 -25.35,-16.9" /><path
         id="path44"
         style="fill:#ed1c24;fill-opacity:1;fill-rule:nonzero;stroke:none"
         d="m 2456.88,1351.05 h 33.78 V 1232.8 h -33.78 v 118.25" /><path
         id="path46"
         style="fill:#ed1c24;fill-opacity:1;fill-rule:nonzero;stroke:none"
         d="m 2555.94,1279.26 c -30.96,0 -46.45,11.26 -46.45,33.79 v 4.22 c 0,22.52 15.49,33.78 46.45,33.78 h 105.58 v -25.34 h -105.58 c -8.44,0 -12.66,-2.81 -12.66,-8.44 v -4.22 c 0,-5.64 4.22,-8.45 12.66,-8.45 h 59.14 c 30.96,0 46.44,-11.26 46.44,-33.79 v -4.22 c 0,-22.53 -15.48,-33.79 -46.44,-33.79 h -105.51 l -0.08,25.34 h 105.59 c 8.44,0 12.65,2.82 12.65,8.45 v 4.22 c 0,5.64 -4.21,8.45 -12.65,8.45 h -59.14" /><path
         id="path48"
         style="fill:#ed1c24;fill-opacity:1;fill-rule:nonzero;stroke:none"
         d="m 2781.7,1325.71 h -50.66 c -11.27,0 -16.9,-5.63 -16.9,-16.89 v -33.78 c 0,-11.27 5.63,-16.9 16.9,-16.9 h 50.66 c 11.27,0 16.89,5.63 16.89,16.9 v 33.78 c 0,11.26 -5.62,16.89 -16.89,16.89 z m -50.66,25.34 h 50.66 c 33.79,0 50.68,-14.08 50.68,-42.23 v -42.23 c 0,-22.53 -16.89,-33.79 -50.68,-33.79 h -50.66 c -33.79,0 -50.69,14.07 -50.69,42.24 v 33.78 c 0,28.15 16.9,42.23 50.69,42.23" /><path
         id="path50"
         style="fill:#ed1c24;fill-opacity:1;fill-rule:nonzero;stroke:none"
         d="M 2956.8,1279.26 H 2885 v -46.46 h -33.79 v 71.8 h 105.59 c 8.43,0 12.67,2.81 12.67,8.45 v 4.22 c 0,5.63 -4.24,8.44 -12.67,8.44 h -105.59 l 0.1,25.34 h 105.49 c 30.97,0 46.46,-11.26 46.46,-33.78 v -4.22 c 0,-10.87 -3.61,-19.12 -10.82,-24.75 9.9,-11.94 16.33,-30.44 19.26,-55.5 h -33.79 c -5.62,30.97 -12.68,46.46 -21.11,46.46" /><path
         id="path52"
         style="fill:#ed1c24;fill-opacity:1;fill-rule:nonzero;stroke:none"
         d="m 3068.54,1279.26 c -30.98,0 -46.47,11.26 -46.47,33.79 v 4.22 c 0,22.52 15.49,33.78 46.47,33.78 h 105.58 v -25.34 h -105.58 c -8.46,0 -12.68,-2.81 -12.68,-8.44 v -4.22 c 0,-5.64 4.22,-8.45 12.68,-8.45 h 59.12 c 30.97,0 46.46,-11.26 46.46,-33.79 v -4.22 c 0,-22.53 -15.49,-33.79 -46.46,-33.79 h -105.49 l -0.1,25.34 h 105.59 c 8.43,0 12.67,2.82 12.67,8.45 v 4.22 c 0,5.64 -4.24,8.45 -12.67,8.45 h -59.12" /><path
         id="path54"
         style="fill:#ed1c24;fill-opacity:1;fill-rule:nonzero;stroke:none"
         d="m 1953.52,1316.48 c 0,10.35 3.22,19.23 9.68,26.69 6.44,7.47 14.85,11.22 25.19,11.22 h 81.22 c 10.19,0 18.5,-3.75 24.96,-11.22 6.45,-7.46 9.67,-16.34 9.67,-26.69 v -84.88 h -28.66 v 84.84 c 0,6.19 -1.99,9.28 -5.97,9.28 h -81.22 c -4.14,0 -6.21,-3.09 -6.21,-9.31 v -17.2 h 75.49 v -28.66 h -75.49 v -38.95 h -28.66 v 84.88" /><path
         id="path56"
         style="fill:none;stroke:#000000;stroke-width:5;stroke-linecap:butt;stroke-linejoin:miter;stroke-miterlimit:4;stroke-dasharray:none;stroke-opacity:1"
         d="M 270,360 H 0" /><path
         id="path58"
         style="fill:none;stroke:#000000;stroke-width:5;stroke-linecap:butt;stroke-linejoin:miter;stroke-miterlimit:4;stroke-dasharray:none;stroke-opacity:1"
         d="M 360,270 V 0" /><path
         id="path60"
         style="fill:none;stroke:#000000;stroke-width:5;stroke-linecap:butt;stroke-linejoin:miter;stroke-miterlimit:4;stroke-dasharray:none;stroke-opacity:1"
         d="M 270,3160 H 0" /><path
         id="path62"
         style="fill:none;stroke:#000000;stroke-width:5;stroke-linecap:butt;stroke-linejoin:miter;stroke-miterlimit:4;stroke-dasharray:none;stroke-opacity:1"
         d="m 360,3250 v 270" /><path
         id="path64"
         style="fill:none;stroke:#000000;stroke-width:5;stroke-linecap:butt;stroke-linejoin:miter;stroke-miterlimit:4;stroke-dasharray:none;stroke-opacity:1"
         d="m 3950,3160 h 270" /><path
         id="path66"
         style="fill:none;stroke:#000000;stroke-width:5;stroke-linecap:butt;stroke-linejoin:miter;stroke-miterlimit:4;stroke-dasharray:none;stroke-opacity:1"
         d="m 3860,3250 v 270" /><path
         id="path68"
         style="fill:none;stroke:#000000;stroke-width:5;stroke-linecap:butt;stroke-linejoin:miter;stroke-miterlimit:4;stroke-dasharray:none;stroke-opacity:1"
         d="m 3950,360 h 270" /><path
         id="path70"
         style="fill:none;stroke:#000000;stroke-width:5;stroke-linecap:butt;stroke-linejoin:miter;stroke-miterlimit:4;stroke-dasharray:none;stroke-opacity:1"
         d="M 3860,270 V 0" /></g></g></svg>
